<mxfile host="Electron" modified="2025-07-31T14:21:50.924Z" agent="Mozilla/5.0 (Windows NT 10.0; Win64; x64) AppleWebKit/537.36 (KHTML, like Gecko) draw.io/24.4.8 Chrome/124.0.6367.207 Electron/30.0.6 Safari/537.36" etag="PPgM5yiTER8b8WK-W_mi" version="24.4.8" type="device">
  <diagram name="Page-1" id="YS56guyC4_ST_xnb5T6s">
    <mxGraphModel dx="1219" dy="771" grid="1" gridSize="10" guides="1" tooltips="1" connect="1" arrows="1" fold="1" page="1" pageScale="1" pageWidth="1200" pageHeight="1920" math="0" shadow="0">
      <root>
        <mxCell id="0" />
        <mxCell id="1" parent="0" />
        <mxCell id="DFtTc4fJqdZt-kXMd437-43" value="" style="rounded=0;whiteSpace=wrap;html=1;fillColor=#f8cecc;strokeColor=#b85450;" vertex="1" parent="1">
          <mxGeometry x="10" y="20" width="1070" height="590" as="geometry" />
        </mxCell>
        <mxCell id="DFtTc4fJqdZt-kXMd437-9" style="edgeStyle=orthogonalEdgeStyle;rounded=0;orthogonalLoop=1;jettySize=auto;html=1;" edge="1" parent="1" source="DFtTc4fJqdZt-kXMd437-1">
          <mxGeometry relative="1" as="geometry">
            <mxPoint x="220" y="110" as="targetPoint" />
          </mxGeometry>
        </mxCell>
        <mxCell id="DFtTc4fJqdZt-kXMd437-1" value="ADmin 1" style="shape=umlActor;verticalLabelPosition=bottom;verticalAlign=top;html=1;outlineConnect=0;" vertex="1" parent="1">
          <mxGeometry x="70" y="80" width="30" height="60" as="geometry" />
        </mxCell>
        <mxCell id="DFtTc4fJqdZt-kXMd437-13" style="edgeStyle=orthogonalEdgeStyle;rounded=0;orthogonalLoop=1;jettySize=auto;html=1;" edge="1" parent="1" source="DFtTc4fJqdZt-kXMd437-8">
          <mxGeometry relative="1" as="geometry">
            <mxPoint x="220" y="240" as="targetPoint" />
          </mxGeometry>
        </mxCell>
        <mxCell id="DFtTc4fJqdZt-kXMd437-8" value="Admin 2" style="shape=umlActor;verticalLabelPosition=bottom;verticalAlign=top;html=1;outlineConnect=0;" vertex="1" parent="1">
          <mxGeometry x="70" y="210" width="30" height="60" as="geometry" />
        </mxCell>
        <mxCell id="DFtTc4fJqdZt-kXMd437-11" style="edgeStyle=orthogonalEdgeStyle;rounded=0;orthogonalLoop=1;jettySize=auto;html=1;" edge="1" parent="1" source="DFtTc4fJqdZt-kXMd437-10">
          <mxGeometry relative="1" as="geometry">
            <mxPoint x="430" y="110" as="targetPoint" />
          </mxGeometry>
        </mxCell>
        <mxCell id="DFtTc4fJqdZt-kXMd437-10" value="Edit Access" style="shape=parallelogram;perimeter=parallelogramPerimeter;whiteSpace=wrap;html=1;fixedSize=1;" vertex="1" parent="1">
          <mxGeometry x="210" y="80" width="120" height="60" as="geometry" />
        </mxCell>
        <mxCell id="DFtTc4fJqdZt-kXMd437-12" value="Samples Check" style="rounded=1;whiteSpace=wrap;html=1;" vertex="1" parent="1">
          <mxGeometry x="430" y="80" width="120" height="60" as="geometry" />
        </mxCell>
        <mxCell id="DFtTc4fJqdZt-kXMd437-15" style="edgeStyle=orthogonalEdgeStyle;rounded=0;orthogonalLoop=1;jettySize=auto;html=1;" edge="1" parent="1" source="DFtTc4fJqdZt-kXMd437-14">
          <mxGeometry relative="1" as="geometry">
            <mxPoint x="440" y="240" as="targetPoint" />
          </mxGeometry>
        </mxCell>
        <mxCell id="DFtTc4fJqdZt-kXMd437-14" value="Edit Access" style="shape=parallelogram;perimeter=parallelogramPerimeter;whiteSpace=wrap;html=1;fixedSize=1;" vertex="1" parent="1">
          <mxGeometry x="210" y="210" width="120" height="60" as="geometry" />
        </mxCell>
        <mxCell id="DFtTc4fJqdZt-kXMd437-18" style="edgeStyle=orthogonalEdgeStyle;rounded=0;orthogonalLoop=1;jettySize=auto;html=1;" edge="1" parent="1" source="DFtTc4fJqdZt-kXMd437-16" target="DFtTc4fJqdZt-kXMd437-17">
          <mxGeometry relative="1" as="geometry" />
        </mxCell>
        <mxCell id="DFtTc4fJqdZt-kXMd437-16" value="Virtual Classroom&lt;div&gt;Create&lt;/div&gt;" style="rounded=1;whiteSpace=wrap;html=1;" vertex="1" parent="1">
          <mxGeometry x="440" y="210" width="120" height="60" as="geometry" />
        </mxCell>
        <mxCell id="DFtTc4fJqdZt-kXMd437-17" value="Verify Sample Img" style="rounded=1;whiteSpace=wrap;html=1;" vertex="1" parent="1">
          <mxGeometry x="640" y="210" width="120" height="60" as="geometry" />
        </mxCell>
        <mxCell id="DFtTc4fJqdZt-kXMd437-20" style="edgeStyle=orthogonalEdgeStyle;rounded=0;orthogonalLoop=1;jettySize=auto;html=1;" edge="1" parent="1" source="DFtTc4fJqdZt-kXMd437-19">
          <mxGeometry relative="1" as="geometry">
            <mxPoint x="200" y="370" as="targetPoint" />
          </mxGeometry>
        </mxCell>
        <mxCell id="DFtTc4fJqdZt-kXMd437-37" style="edgeStyle=orthogonalEdgeStyle;rounded=0;orthogonalLoop=1;jettySize=auto;html=1;entryX=0;entryY=0.5;entryDx=0;entryDy=0;" edge="1" parent="1" source="DFtTc4fJqdZt-kXMd437-19" target="DFtTc4fJqdZt-kXMd437-36">
          <mxGeometry relative="1" as="geometry">
            <Array as="points">
              <mxPoint x="85" y="550" />
            </Array>
          </mxGeometry>
        </mxCell>
        <mxCell id="DFtTc4fJqdZt-kXMd437-19" value="Lecture" style="shape=umlActor;verticalLabelPosition=bottom;verticalAlign=top;html=1;outlineConnect=0;" vertex="1" parent="1">
          <mxGeometry x="70" y="340" width="30" height="60" as="geometry" />
        </mxCell>
        <mxCell id="DFtTc4fJqdZt-kXMd437-22" style="edgeStyle=orthogonalEdgeStyle;rounded=0;orthogonalLoop=1;jettySize=auto;html=1;" edge="1" parent="1" source="DFtTc4fJqdZt-kXMd437-21">
          <mxGeometry relative="1" as="geometry">
            <mxPoint x="400" y="370" as="targetPoint" />
          </mxGeometry>
        </mxCell>
        <mxCell id="DFtTc4fJqdZt-kXMd437-26" style="edgeStyle=orthogonalEdgeStyle;rounded=0;orthogonalLoop=1;jettySize=auto;html=1;entryX=0;entryY=0.5;entryDx=0;entryDy=0;" edge="1" parent="1" source="DFtTc4fJqdZt-kXMd437-21" target="DFtTc4fJqdZt-kXMd437-25">
          <mxGeometry relative="1" as="geometry">
            <Array as="points">
              <mxPoint x="240" y="470" />
            </Array>
          </mxGeometry>
        </mxCell>
        <mxCell id="DFtTc4fJqdZt-kXMd437-21" value="Create Subject" style="shape=parallelogram;perimeter=parallelogramPerimeter;whiteSpace=wrap;html=1;fixedSize=1;" vertex="1" parent="1">
          <mxGeometry x="190" y="340" width="120" height="60" as="geometry" />
        </mxCell>
        <mxCell id="DFtTc4fJqdZt-kXMd437-27" style="edgeStyle=orthogonalEdgeStyle;rounded=0;orthogonalLoop=1;jettySize=auto;html=1;" edge="1" parent="1" source="DFtTc4fJqdZt-kXMd437-23">
          <mxGeometry relative="1" as="geometry">
            <mxPoint x="620" y="370" as="targetPoint" />
          </mxGeometry>
        </mxCell>
        <mxCell id="DFtTc4fJqdZt-kXMd437-23" value="Classroom Selection" style="rounded=0;whiteSpace=wrap;html=1;" vertex="1" parent="1">
          <mxGeometry x="400" y="340" width="120" height="60" as="geometry" />
        </mxCell>
        <mxCell id="DFtTc4fJqdZt-kXMd437-34" style="edgeStyle=orthogonalEdgeStyle;rounded=0;orthogonalLoop=1;jettySize=auto;html=1;" edge="1" parent="1" source="DFtTc4fJqdZt-kXMd437-25" target="DFtTc4fJqdZt-kXMd437-23">
          <mxGeometry relative="1" as="geometry" />
        </mxCell>
        <mxCell id="DFtTc4fJqdZt-kXMd437-25" value="Add student into the Subject" style="rounded=1;whiteSpace=wrap;html=1;" vertex="1" parent="1">
          <mxGeometry x="400" y="440" width="120" height="60" as="geometry" />
        </mxCell>
        <mxCell id="DFtTc4fJqdZt-kXMd437-31" style="edgeStyle=orthogonalEdgeStyle;rounded=0;orthogonalLoop=1;jettySize=auto;html=1;" edge="1" parent="1" source="DFtTc4fJqdZt-kXMd437-28" target="DFtTc4fJqdZt-kXMd437-30">
          <mxGeometry relative="1" as="geometry" />
        </mxCell>
        <mxCell id="DFtTc4fJqdZt-kXMd437-33" style="edgeStyle=orthogonalEdgeStyle;rounded=0;orthogonalLoop=1;jettySize=auto;html=1;" edge="1" parent="1" source="DFtTc4fJqdZt-kXMd437-28" target="DFtTc4fJqdZt-kXMd437-32">
          <mxGeometry relative="1" as="geometry" />
        </mxCell>
        <mxCell id="DFtTc4fJqdZt-kXMd437-28" value="Check in/ out" style="rounded=1;whiteSpace=wrap;html=1;" vertex="1" parent="1">
          <mxGeometry x="620" y="340" width="120" height="60" as="geometry" />
        </mxCell>
        <mxCell id="DFtTc4fJqdZt-kXMd437-30" value="&amp;nbsp;Dynamic (in only)" style="rounded=1;whiteSpace=wrap;html=1;" vertex="1" parent="1">
          <mxGeometry x="800" y="280" width="120" height="60" as="geometry" />
        </mxCell>
        <mxCell id="DFtTc4fJqdZt-kXMd437-32" value="Static (in and out)" style="rounded=1;whiteSpace=wrap;html=1;" vertex="1" parent="1">
          <mxGeometry x="810" y="400" width="120" height="60" as="geometry" />
        </mxCell>
        <mxCell id="DFtTc4fJqdZt-kXMd437-36" value="Management" style="shape=parallelogram;perimeter=parallelogramPerimeter;whiteSpace=wrap;html=1;fixedSize=1;" vertex="1" parent="1">
          <mxGeometry x="170" y="520" width="120" height="60" as="geometry" />
        </mxCell>
        <mxCell id="DFtTc4fJqdZt-kXMd437-40" style="edgeStyle=orthogonalEdgeStyle;rounded=0;orthogonalLoop=1;jettySize=auto;html=1;" edge="1" parent="1" source="DFtTc4fJqdZt-kXMd437-38" target="DFtTc4fJqdZt-kXMd437-39">
          <mxGeometry relative="1" as="geometry" />
        </mxCell>
        <mxCell id="DFtTc4fJqdZt-kXMd437-42" style="edgeStyle=orthogonalEdgeStyle;rounded=0;orthogonalLoop=1;jettySize=auto;html=1;entryX=0;entryY=0.75;entryDx=0;entryDy=0;" edge="1" parent="1" source="DFtTc4fJqdZt-kXMd437-38" target="DFtTc4fJqdZt-kXMd437-41">
          <mxGeometry relative="1" as="geometry">
            <Array as="points">
              <mxPoint x="819" y="215" />
            </Array>
          </mxGeometry>
        </mxCell>
        <mxCell id="DFtTc4fJqdZt-kXMd437-38" value="Student/Staff" style="shape=umlActor;verticalLabelPosition=bottom;verticalAlign=top;html=1;outlineConnect=0;" vertex="1" parent="1">
          <mxGeometry x="810" y="60" width="30" height="60" as="geometry" />
        </mxCell>
        <mxCell id="DFtTc4fJqdZt-kXMd437-39" value="Upload sample Img" style="rounded=1;whiteSpace=wrap;html=1;" vertex="1" parent="1">
          <mxGeometry x="929" y="60" width="120" height="60" as="geometry" />
        </mxCell>
        <mxCell id="DFtTc4fJqdZt-kXMd437-41" value="Check in / out" style="rounded=1;whiteSpace=wrap;html=1;" vertex="1" parent="1">
          <mxGeometry x="929" y="160" width="120" height="70" as="geometry" />
        </mxCell>
      </root>
    </mxGraphModel>
  </diagram>
</mxfile>
